<svg width="28" height="28" viewBox="0 0 28 28" fill="none" xmlns="http://www.w3.org/2000/svg">
<path d="M22.1667 4.66659H19.8333V2.33325H17.5V4.66659H10.5V2.33325H8.16667V4.66659H5.83333C4.5465 4.66659 3.5 5.71309 3.5 6.99992V23.3333C3.5 24.6201 4.5465 25.6666 5.83333 25.6666H22.1667C23.4535 25.6666 24.5 24.6201 24.5 23.3333V6.99992C24.5 5.71309 23.4535 4.66659 22.1667 4.66659ZM17.9107 18.3294L14.0023 22.1666L10.0952 18.3294C9.85419 18.0977 9.66248 17.8196 9.53153 17.512C9.40058 17.2044 9.33309 16.8735 9.33309 16.5392C9.33309 16.2048 9.40058 15.8739 9.53153 15.5663C9.66248 15.2587 9.85419 14.9807 10.0952 14.7489C10.5808 14.2695 11.2357 14.0007 11.9181 14.0007C12.6005 14.0007 13.2554 14.2695 13.741 14.7489L14.0023 15.0044L14.2637 14.7489C14.7495 14.2694 15.4046 14.0006 16.0872 14.0006C16.7697 14.0006 17.4249 14.2694 17.9107 14.7489C18.1516 14.9807 18.3433 15.2587 18.4743 15.5663C18.6052 15.8739 18.6727 16.2048 18.6727 16.5392C18.6727 16.8735 18.6052 17.2044 18.4743 17.512C18.3433 17.8196 18.1516 18.0977 17.9107 18.3294V18.3294ZM22.1667 10.4999H5.83333V8.16659H22.1667V10.4999Z" fill="#00294D"/>
</svg>
