<svg width="28" height="28" viewBox="0 0 28 28" fill="none" xmlns="http://www.w3.org/2000/svg">
<path d="M14.716 2.57918C14.5112 2.41987 14.2591 2.33337 13.9997 2.33337C13.7402 2.33337 13.4881 2.41987 13.2833 2.57918L3.68401 10.0458C3.26303 10.3733 2.92246 10.7927 2.68831 11.2719C2.45417 11.7511 2.33264 12.2775 2.33301 12.8109V23.3342C2.33301 23.953 2.57884 24.5465 3.01643 24.9841C3.45401 25.4217 4.0475 25.6675 4.66634 25.6675H9.33301C9.95185 25.6675 10.5453 25.4217 10.9829 24.9841C11.4205 24.5465 11.6663 23.953 11.6663 23.3342V16.3342H16.333V23.3342C16.333 23.953 16.5788 24.5465 17.0164 24.9841C17.454 25.4217 18.0475 25.6675 18.6663 25.6675H23.333C23.9518 25.6675 24.5453 25.4217 24.9829 24.9841C25.4205 24.5465 25.6663 23.953 25.6663 23.3342V12.8109C25.6664 12.2773 25.5445 11.7508 25.31 11.2716C25.0754 10.7923 24.7344 10.3731 24.313 10.0458L14.716 2.57918Z" fill="#00294D"/>
</svg>
