<svg width="28" height="28" viewBox="0 0 28 28" fill="none" xmlns="http://www.w3.org/2000/svg">
<g clip-path="url(#clip0_201_3636)">
<path d="M19.2497 14C22.1663 14 24.4997 16.3334 24.4997 19.25C24.4997 20.2767 24.208 21.245 23.6947 22.05L27.288 25.6667L25.6663 27.2884L22.0263 23.7067C21.2213 24.2084 20.2647 24.5 19.2497 24.5C16.333 24.5 13.9997 22.1667 13.9997 19.25C13.9997 16.3334 16.333 14 19.2497 14ZM19.2497 16.3334C18.4761 16.3334 17.7343 16.6407 17.1873 17.1876C16.6403 17.7346 16.333 18.4765 16.333 19.25C16.333 20.0236 16.6403 20.7655 17.1873 21.3124C17.7343 21.8594 18.4761 22.1667 19.2497 22.1667C20.0232 22.1667 20.7651 21.8594 21.3121 21.3124C21.8591 20.7655 22.1663 20.0236 22.1663 19.25C22.1663 18.4765 21.8591 17.7346 21.3121 17.1876C20.7651 16.6407 20.0232 16.3334 19.2497 16.3334ZM11.6663 2.33337H16.333C16.9518 2.33337 17.5453 2.57921 17.9829 3.01679C18.4205 3.45438 18.6663 4.04787 18.6663 4.66671V7.00004H23.333C23.9518 7.00004 24.5453 7.24587 24.9829 7.68346C25.4205 8.12104 25.6663 8.71454 25.6663 9.33337V15.2017C24.9831 14.1178 24.0361 13.225 22.9138 12.6068C21.7916 11.9886 20.5309 11.6651 19.2497 11.6667C17.2385 11.6667 15.3096 12.4657 13.8874 13.8878C12.4653 15.31 11.6663 17.2388 11.6663 19.25C11.6663 21.2917 12.4713 23.135 13.778 24.5H4.66634C4.0475 24.5 3.45401 24.2542 3.01643 23.8166C2.57884 23.379 2.33301 22.7855 2.33301 22.1667V9.33337C2.33301 8.03837 3.37134 7.00004 4.66634 7.00004H9.33301V4.66671C9.33301 3.37171 10.3713 2.33337 11.6663 2.33337ZM16.333 7.00004V4.66671H11.6663V7.00004H16.333Z" fill="#00294D"/>
</g>
<defs>
<clipPath id="clip0_201_3636">
<rect width="28" height="28" fill="white"/>
</clipPath>
</defs>
</svg>
