<svg width="28" height="28" viewBox="0 0 28 28" fill="none" xmlns="http://www.w3.org/2000/svg">
<g clip-path="url(#clip0_201_3643)">
<path d="M17.9375 11.375C17.9375 12.4193 17.5227 13.4208 16.7842 14.1592C16.0458 14.8977 15.0443 15.3125 14 15.3125C12.9557 15.3125 11.9542 14.8977 11.2158 14.1592C10.4773 13.4208 10.0625 12.4193 10.0625 11.375C10.0625 10.3307 10.4773 9.32919 11.2158 8.59077C11.9542 7.85234 12.9557 7.4375 14 7.4375C15.0443 7.4375 16.0458 7.85234 16.7842 8.59077C17.5227 9.32919 17.9375 10.3307 17.9375 11.375Z" fill="#00294D"/>
<path d="M6.125 3.5C5.42881 3.5 4.76113 3.77656 4.26884 4.26884C3.77656 4.76113 3.5 5.42881 3.5 6.125L3.5 21.875C3.5 22.5712 3.77656 23.2389 4.26884 23.7312C4.76113 24.2234 5.42881 24.5 6.125 24.5H21.875C22.5712 24.5 23.2389 24.2234 23.7312 23.7312C24.2234 23.2389 24.5 22.5712 24.5 21.875V6.125C24.5 5.42881 24.2234 4.76113 23.7312 4.26884C23.2389 3.77656 22.5712 3.5 21.875 3.5H6.125ZM21.875 4.8125C22.2231 4.8125 22.5569 4.95078 22.8031 5.19692C23.0492 5.44306 23.1875 5.7769 23.1875 6.125V21.875C23.1875 22.2231 23.0492 22.5569 22.8031 22.8031C22.5569 23.0492 22.2231 23.1875 21.875 23.1875V21.875C21.875 20.5625 20.5625 16.625 14 16.625C7.4375 16.625 6.125 20.5625 6.125 21.875V23.1875C5.7769 23.1875 5.44306 23.0492 5.19692 22.8031C4.95078 22.5569 4.8125 22.2231 4.8125 21.875V6.125C4.8125 5.7769 4.95078 5.44306 5.19692 5.19692C5.44306 4.95078 5.7769 4.8125 6.125 4.8125H21.875Z" fill="#00294D"/>
</g>
<defs>
<clipPath id="clip0_201_3643">
<rect width="21" height="21" fill="white" transform="translate(3.5 3.5)"/>
</clipPath>
</defs>
</svg>
