<svg width="48" height="48" viewBox="0 0 48 48" fill="none" xmlns="http://www.w3.org/2000/svg">
<path d="M43.0605 28.9395L39 24.879V19.5C38.9953 15.7828 37.6125 12.1993 35.1189 9.44247C32.6254 6.68567 29.1981 4.9514 25.5 4.575V1.5H22.5V4.575C18.8019 4.9514 15.3746 6.68567 12.8811 9.44247C10.3875 12.1993 9.00465 15.7828 9 19.5V24.879L4.9395 28.9395C4.65818 29.2207 4.50008 29.6022 4.5 30V34.5C4.5 34.8978 4.65804 35.2794 4.93934 35.5607C5.22064 35.842 5.60218 36 6 36H16.5V37.1655C16.4674 39.0685 17.1381 40.9165 18.3837 42.3556C19.6292 43.7946 21.362 44.7234 23.25 44.964C24.2928 45.0674 25.3456 44.9514 26.3409 44.6235C27.3361 44.2956 28.2517 43.763 29.0288 43.0599C29.8058 42.3569 30.4272 41.499 30.8528 40.5415C31.2784 39.5839 31.4988 38.5479 31.5 37.5V36H42C42.3978 36 42.7794 35.842 43.0607 35.5607C43.342 35.2794 43.5 34.8978 43.5 34.5V30C43.4999 29.6022 43.3418 29.2207 43.0605 28.9395ZM28.5 37.5C28.5 38.6935 28.0259 39.8381 27.182 40.682C26.3381 41.5259 25.1935 42 24 42C22.8065 42 21.6619 41.5259 20.818 40.682C19.9741 39.8381 19.5 38.6935 19.5 37.5V36H28.5V37.5ZM40.5 33H7.5V30.621L11.5605 26.5605C11.8418 26.2793 11.9999 25.8978 12 25.5V19.5C12 16.3174 13.2643 13.2652 15.5147 11.0147C17.7652 8.76428 20.8174 7.5 24 7.5C27.1826 7.5 30.2348 8.76428 32.4853 11.0147C34.7357 13.2652 36 16.3174 36 19.5V25.5C36.0001 25.8978 36.1582 26.2793 36.4395 26.5605L40.5 30.621V33Z" fill="black"/>
<circle cx="36" cy="8" r="6.5" fill="#0088FF" stroke="white"/>
</svg>
