<svg width="16" height="16" viewBox="0 0 16 16" fill="none" xmlns="http://www.w3.org/2000/svg">
<g clip-path="url(#clip0_64_5937)">
<path d="M8 15C6.14348 15 4.36301 14.2625 3.05025 12.9497C1.7375 11.637 1 9.85652 1 8C1 6.14348 1.7375 4.36301 3.05025 3.05025C4.36301 1.7375 6.14348 1 8 1C9.85652 1 11.637 1.7375 12.9497 3.05025C14.2625 4.36301 15 6.14348 15 8C15 9.85652 14.2625 11.637 12.9497 12.9497C11.637 14.2625 9.85652 15 8 15ZM8 16C10.1217 16 12.1566 15.1571 13.6569 13.6569C15.1571 12.1566 16 10.1217 16 8C16 5.87827 15.1571 3.84344 13.6569 2.34315C12.1566 0.842855 10.1217 0 8 0C5.87827 0 3.84344 0.842855 2.34315 2.34315C0.842855 3.84344 0 5.87827 0 8C0 10.1217 0.842855 12.1566 2.34315 13.6569C3.84344 15.1571 5.87827 16 8 16Z" fill="#6495ED"/>
<path d="M10.9706 4.96999C10.9634 4.97689 10.9568 4.98424 10.9506 4.99199L7.47756 9.41699L5.38456 7.32299C5.24238 7.19051 5.05433 7.11839 4.86003 7.12182C4.66573 7.12524 4.48035 7.20396 4.34293 7.34137C4.20552 7.47878 4.12681 7.66417 4.12338 7.85847C4.11995 8.05277 4.19208 8.24082 4.32456 8.38299L6.97056 11.03C7.04184 11.1011 7.12672 11.1572 7.22014 11.1948C7.31356 11.2325 7.4136 11.2509 7.5143 11.249C7.615 11.2472 7.71429 11.2251 7.80625 11.184C7.89821 11.1429 7.98096 11.0837 8.04956 11.01L12.0416 6.01999C12.1775 5.87732 12.2518 5.68689 12.2484 5.48986C12.2451 5.29283 12.1643 5.10504 12.0236 4.96708C11.8829 4.82913 11.6935 4.7521 11.4965 4.75264C11.2994 4.75319 11.1105 4.83126 10.9706 4.96999Z" fill="#6495ED"/>
</g>
<defs>
<clipPath id="clip0_64_5937">
<rect width="16" height="16" fill="white"/>
</clipPath>
</defs>
</svg>
