<svg width="40" height="32" viewBox="0 0 40 32" fill="none" xmlns="http://www.w3.org/2000/svg">
<rect width="40" height="32" rx="4" fill="white"/>
<path d="M16.4375 8.3125H16.25C16.3531 8.3125 16.4375 8.22812 16.4375 8.125V8.3125H23.5625V8.125C23.5625 8.22812 23.6469 8.3125 23.75 8.3125H23.5625V10H25.25V8.125C25.25 7.29766 24.5773 6.625 23.75 6.625H16.25C15.4227 6.625 14.75 7.29766 14.75 8.125V10H16.4375V8.3125ZM28.25 10H11.75C11.3352 10 11 10.3352 11 10.75V11.5C11 11.6031 11.0844 11.6875 11.1875 11.6875H12.6031L13.182 23.9453C13.2195 24.7445 13.8805 25.375 14.6797 25.375H25.3203C26.1219 25.375 26.7805 24.7469 26.818 23.9453L27.3969 11.6875H28.8125C28.9156 11.6875 29 11.6031 29 11.5V10.75C29 10.3352 28.6648 10 28.25 10ZM25.1398 23.6875H14.8602L14.293 11.6875H25.707L25.1398 23.6875Z" fill="#0088FF"/>
</svg>
